<?xml version="1.0" standalone="no"?>
<!DOCTYPE svg PUBLIC "-//W3C//DTD SVG 20010904//EN"
 "http://www.w3.org/TR/2001/REC-SVG-20010904/DTD/svg10.dtd">
<svg version="1.0" xmlns="http://www.w3.org/2000/svg"
 width="2238.000000pt" height="1555.000000pt" viewBox="0 0 2238.000000 1555.000000"
 preserveAspectRatio="xMidYMid meet">

<g transform="translate(0.000000,1555.000000) scale(0.100000,-0.100000)"
fill="#24A2B8" stroke="none">
<path d="M11150 15484 c-344 -238 -614 -469 -965 -825 -664 -676 -1298 -1575
-1760 -2499 -124 -248 -162 -335 -240 -545 -259 -703 -428 -1399 -501 -2070
-21 -202 -30 -785 -15 -982 33 -404 99 -738 217 -1085 172 -508 443 -948 809
-1313 542 -543 1241 -873 2055 -971 200 -25 619 -25 820 -1 791 95 1484 420
2000 937 509 510 803 1146 902 1950 21 166 17 797 -5 980 -101 834 -371 1665
-836 2575 -127 249 -261 495 -270 495 -3 0 -6 -192 -6 -428 -1 -337 -4 -459
-18 -580 -89 -782 -328 -1202 -773 -1353 -142 -48 -247 -63 -444 -62 -387 2
-817 100 -1618 369 -206 69 -376 124 -378 121 -2 -2 15 -19 39 -37 104 -83
264 -226 401 -360 449 -438 764 -896 971 -1411 107 -266 128 -468 66 -645 -59
-167 -219 -305 -416 -359 -92 -25 -301 -31 -412 -11 -431 75 -824 349 -1094
765 -87 133 -238 436 -284 571 -76 220 -137 516 -167 810 -17 160 -16 711 0
885 98 1027 399 2035 962 3225 253 535 643 1235 998 1793 45 70 76 127 69 127
-6 -1 -55 -30 -107 -66z"/>
<path d="M11697 11890 c-43 -11 -120 -41 -170 -67 -124 -64 -254 -191 -314
-308 -63 -122 -84 -202 -90 -336 -8 -168 24 -300 103 -431 127 -209 329 -339
575 -369 348 -42 689 168 808 496 151 419 -71 872 -494 1005 -103 33 -310 37
-418 10z" fill="#A7B8B6"/>
<path d="M1430 4628 c-399 -835 -888 -2064 -1375 -3455 l-54 -153 443 0 443 0
112 327 c62 181 124 363 139 405 l27 78 728 0 c400 0 727 -1 727 -3 0 -1 53
-156 118 -342 65 -187 126 -368 137 -403 l18 -62 459 0 c252 0 458 2 458 4 0
12 -318 894 -440 1221 -351 940 -670 1706 -1005 2413 l-58 122 -402 0 -402 0
-73 -152z m529 -901 c226 -574 459 -1203 449 -1213 -3 -2 -239 -3 -526 -2
l-521 3 78 205 c224 595 446 1170 451 1170 3 0 34 -73 69 -163z"/>
<path d="M10400 3944 c-19 -2 -87 -9 -150 -15 -234 -22 -620 -99 -620 -124 0
-7 22 -153 50 -326 27 -173 50 -317 50 -321 0 -4 24 1 53 11 221 76 651 120
857 88 52 -8 121 -25 152 -37 71 -26 154 -100 191 -169 32 -59 57 -162 57
-242 l0 -56 -67 13 c-135 26 -389 38 -549 26 -265 -21 -431 -59 -599 -141
-280 -135 -426 -344 -456 -652 -19 -194 12 -389 86 -544 187 -387 638 -535
1475 -485 242 15 555 60 838 120 l53 12 -4 966 c-4 1054 -2 1023 -63 1222
-106 349 -368 556 -795 630 -119 20 -464 35 -559 24z m550 -1715 l90 -12 0
-302 0 -303 -77 -8 c-125 -12 -442 -10 -499 3 -207 49 -286 134 -287 308 -1
194 121 297 385 325 96 10 259 5 388 -11z"/>
<path d="M18135 3939 c-317 -44 -613 -194 -812 -413 -121 -134 -250 -362 -307
-546 -54 -171 -70 -292 -70 -550 0 -197 4 -254 22 -351 57 -311 170 -539 361
-730 298 -299 710 -428 1272 -398 315 17 732 100 837 168 11 7 4 68 -38 327
-28 175 -53 324 -55 330 -2 8 -36 1 -102 -21 -221 -76 -471 -110 -731 -102
-198 6 -281 24 -419 92 -150 74 -253 193 -297 344 -9 30 -16 63 -16 73 0 17
37 18 909 18 l909 0 6 22 c13 53 18 369 7 493 -38 412 -146 679 -366 901 -175
178 -381 282 -650 329 -110 20 -365 27 -460 14z m330 -684 c81 -21 156 -68
220 -137 76 -82 119 -183 140 -330 l7 -48 -527 0 -527 0 7 38 c14 76 67 219
101 270 69 104 180 185 290 211 64 15 224 12 289 -4z"/>
<path d="M4978 3929 c-201 -20 -385 -72 -558 -159 -504 -254 -768 -797 -721
-1482 6 -87 18 -197 27 -245 88 -511 359 -872 754 -1006 153 -52 228 -62 460
-62 240 0 306 10 482 71 53 19 100 34 103 34 3 0 5 -238 5 -530 l0 -530 410 0
410 0 0 1879 0 1878 -127 31 c-413 101 -932 151 -1245 121z m505 -705 l47 -7
-2 -725 -3 -726 -56 -27 c-138 -69 -380 -98 -523 -65 -194 46 -323 184 -383
413 -21 81 -26 128 -30 275 -6 205 5 301 48 433 60 181 164 312 301 379 114
57 175 67 378 61 96 -2 196 -8 223 -11z"/>
<path d="M15285 3929 c-512 -49 -904 -297 -1105 -698 -45 -91 -106 -281 -124
-391 -47 -277 -23 -630 59 -877 80 -240 232 -443 428 -571 199 -130 463 -191
772 -179 156 6 259 24 385 68 47 16 93 32 104 36 17 6 18 1 12 -88 -21 -275
-124 -425 -341 -496 -71 -23 -101 -26 -262 -31 -291 -7 -498 23 -768 113 -71
23 -131 42 -131 41 -5 -5 -143 -681 -139 -684 2 -2 55 -19 118 -37 537 -157
1138 -172 1547 -39 430 139 668 423 763 914 20 102 21 145 24 1436 l4 1332
-148 36 c-409 98 -889 144 -1198 115z m400 -659 c50 -6 100 -12 113 -15 l22
-5 0 -636 0 -635 -72 -34 c-107 -49 -179 -66 -308 -72 -190 -9 -322 36 -420
144 -87 95 -132 215 -151 410 -20 195 14 394 93 546 130 250 346 338 723 297z"/>
<path d="M20905 3934 c-246 -13 -608 -66 -855 -125 l-130 -31 0 -1379 0 -1379
405 0 405 0 2 1097 3 1098 50 7 c28 4 124 10 215 14 135 5 177 3 234 -10 170
-40 251 -128 296 -319 35 -145 40 -290 40 -1099 l0 -788 405 0 405 0 0 890 c0
561 -4 927 -11 988 -30 281 -106 496 -232 659 -149 194 -390 318 -703 363 -82
12 -407 20 -529 14z"/>
<path d="M12940 3914 c-199 -21 -569 -107 -765 -177 l-40 -14 -3 -1352 -2
-1351 405 0 405 0 2 1088 3 1087 60 12 c211 42 411 36 679 -22 88 -19 162 -33
164 -30 2 2 35 153 72 335 62 301 66 331 51 340 -47 25 -277 69 -466 90 -124
14 -414 11 -565 -6z"/>
<path d="M6650 2976 c0 -950 2 -1006 50 -1210 107 -459 399 -716 895 -791 132
-20 511 -20 721 0 194 18 482 66 658 109 l131 32 3 1377 2 1377 -410 0 -410 0
0 -1094 0 -1094 -22 -6 c-13 -3 -94 -11 -180 -18 -387 -29 -527 60 -599 378
-22 97 -23 113 -26 967 l-4 867 -405 0 -404 0 0 -894z"/>
</g>
</svg>
